        <svg width="32" height="20" viewBox="0 0 1820 901" fill="none" xmlns="http://www.w3.org/2000/svg">
            <g clip-path="url(#clip0_72_26)">
                <path d="M630 53C630 202.516 486.226 324 308.5 324C130.774 324 -13 202.516 -13 53C-13 -96.5163 130.774 -218 308.5 -218C486.226 -218 630 -96.5163 630 53Z" stroke="#27AE60" stroke-opacity="0.5" stroke-width="2" />
                <path d="M1929 831C1929 990.481 1779.83 1120 1595.5 1120C1411.17 1120 1262 990.481 1262 831C1262 671.519 1411.17 542 1595.5 542C1779.83 542 1929 671.519 1929 831Z" stroke="#27AE60" stroke-opacity="0.5" stroke-width="2" />
                <path d="M1368 664C1368 821.92 1235.29 950 1071.5 950C907.713 950 775 821.92 775 664C775 506.08 907.713 378 1071.5 378C1235.29 378 1368 506.08 1368 664Z" stroke="#27AE60" stroke-opacity="0.5" stroke-width="2" />
                <g filter="url(#filter0_df_72_26)">
                    <ellipse cx="805.5" cy="209" rx="82.5" ry="25" fill="url(#paint0_linear_02_26)" />
                </g>
                <g filter="url(#filter1_af_72_26)">
                    <ellipse cx="112.5" cy="900" rx="98.5" ry="24" fill="url(#paint1_linear_02_26)" />
                </g>
                  <g filter="url(#filter1_df_72_26)">
                    <ellipse cx="112.5" cy="900" rx="98.5" ry="14" fill="url(#paint1_linear_02_26)" />
                </g>
                  <g filter="url(#filter1_df_72_26)">
                    <ellipse cx="112.5" cy="900" rx="98.5" ry="64" fill="url(#paint1_linear_02_26)" />
                </g>
            </g>
            <defs>
                <filter id="filter0_df_72_26" x="673" y="24" width="365" height="370" filterUnits="userSpaceOnUse" color-interpolation-filters="sRGB">
                    <feFlood flood-opacity="0" result="BackgroundImageFix" />
                    <feColorMatrix in="SourceAlpha" type="matrix" values="0 0 0 0 0 0 0 0 0 0 0 0 0 0 0 0 0 0 127 0" result="hardAlpha" />
                    <feOffset />
                    <feGaussianBlur stdDeviation="10" />
                    <feComposite in2="hardAlpha" operator="out" />
                    <feColorMatrix type="matrix" values="0 0 0 0 0 0 0 0 0 0 0 0 0 0 0 0 0 0 0.25 0" />
                    <feBlend mode="normal" in2="BackgroundImageFix" result="effect1_dropShadow_72_26" />
                    <feBlend mode="normal" in="SourceGraphic" in2="effect1_dropShadow_72_26" result="shape" />
                    <feGaussianBlur stdDeviation="50" result="effect2_foregroundBlur_72_26" />
                </filter>
                <filter id="filter1_df_72_26" x="-86" y="706" width="397" height="388" filterUnits="userSpaceOnUse" color-interpolation-filters="sRGB">
                    <feFlood flood-opacity="0" result="BackgroundImageFix" />
                    <feColorMatrix in="SourceAlpha" type="matrix" values="0 0 0 0 0 0 0 0 0 0 0 0 0 0 0 0 0 0 127 0" result="hardAlpha" />
                    <feOffset />
                    <feGaussianBlur stdDeviation="20" />
                    <feComposite in2="hardAlpha" operator="out" />
                    <feColorMatrix type="matrix" values="0 0 0 0 0 0 0 0 0 0 0 0 0 0 0 0 0 0 0.25 0" />
                    <feBlend mode="normal" in2="BackgroundImageFix" result="effect1_dropShadow_72_26" />
                    <feBlend mode="normal" in="SourceGraphic" in2="effect1_dropShadow_72_26" result="shape" />
                    <feGaussianBlur stdDeviation="50" result="effect2_foregroundBlur_72_26" />
                </filter>
                <linearGradient id="paint0_linear_72_26" x1="855" y1="167.5" x2="855" y2="252.5" gradientUnits="userSpaceOnUse">
                    <stop stop-color="#7DAFF9" />
                    <stop offset="0.0001" stop-color="#F39C12" />
                </linearGradient>
                 <linearGradient id="paint0_linear_72_26" x1="855" y1="167.5" x2="855" y2="252.5" gradientUnits="userSpaceOnUse">
                    <stop stop-color="#7DAFF9" />
                    <stop offset="0.0001" stop-color="#F39C12" />
                </linearGradient>
                <linearGradient id="paint1_linear_72_26" x1="112.5" y1="806" x2="112.5" y2="994" gradientUnits="userSpaceOnUse">
                    <stop stop-color="#3779DC" />
                    <stop offset="0.0001" stop-color="#F39C12" />
                </linearGradient>
                <clipPath id="clip0_72_26">
                    <rect width="1820" height="901" fill="white" />
                </clipPath>
                  <clipPath id="clip0_72_26">
                    <rect width="1820" height="901" fill="white" />
                </clipPath>
                  <clipPath id="clip0_72_26">
                    <rect width="1820" height="901" fill="white" />
                </clipPath>
            </defs>
        </svg>